<svg width="32" height="32" viewBox="0 0 32 32" fill="none" xmlns="http://www.w3.org/2000/svg">
<path fill-rule="evenodd" clip-rule="evenodd" d="M16 32C24.8365 32 32 24.8366 32 16C32 7.16344 24.8365 0 16 0C7.1635 0 0 7.16344 0 16C0 24.8366 7.1635 32 16 32ZM3.00872 17.2998L3.01082 17.2912C3.27047 16.2218 3.55413 15.0536 3.55413 13.6085C3.55413 11.8985 3.64324 10.4055 4.09838 9.01892C4.55104 7.63991 5.37134 6.35042 6.86032 5.06249C9.36101 2.89949 12.3745 1.35147 15.8112 1.35147C17.5007 1.35147 18.2538 1.68835 18.8094 2.08896C18.9533 2.19269 19.087 2.30301 19.2247 2.41969C19.2531 2.44381 19.2819 2.46832 19.311 2.49312C19.4207 2.58653 19.5352 2.68407 19.6552 2.77947C19.9641 3.02503 20.3218 3.26666 20.8179 3.46439C21.3214 3.665 21.7655 3.76474 22.1808 3.83511C22.3488 3.86358 22.505 3.88639 22.6567 3.90853C22.8919 3.94287 23.1163 3.97563 23.3569 4.02545C24.1043 4.18022 24.9162 4.48717 26.075 5.49549C28.259 7.72702 30.2109 11.3871 29.8315 15.4719C29.4846 19.2087 26.8251 21.8339 24.643 23.9773L24.6371 23.983C24.3246 24.29 24.0216 24.5877 23.7392 24.8757C23.376 25.2462 23.0125 25.6383 22.6468 26.0328L22.6441 26.0356C21.6626 27.0943 20.6641 28.17 19.5467 28.9843C18.434 29.795 17.2199 30.3339 15.8112 30.3339C13.9221 30.3339 11.2986 29.7797 8.62076 27.5025C8.09086 27.0519 7.4814 26.6106 6.8672 26.1659L6.86352 26.1632C6.00065 25.5386 5.1269 24.9054 4.39892 24.2042C3.6716 23.5036 3.10862 22.7524 2.85038 21.9012C2.31961 20.1519 2.63714 18.8297 3.00872 17.2998Z" fill="#BABABA"/>
<path d="M15.797 4.35675C15.8783 4.21337 15.9895 4.13867 16.1074 4.17975C16.4255 4.29065 16.419 5.30054 16.4146 5.97074C16.4136 6.12273 16.4127 6.25723 16.4158 6.35983C16.4497 7.50228 16.49 8.64722 16.5305 9.79268C16.6086 12.0106 16.7189 16.4376 16.7189 16.4376C16.7189 16.4376 16.8628 17.3723 16.4737 17.6288C15.5232 18.2553 14.5408 18.8477 13.5592 19.4396C13.249 19.6266 12.9388 19.8136 12.6297 20.0017C12.4338 20.1209 12.2383 20.2405 12.0435 20.3608C11.9985 20.3886 11.9422 20.4292 11.8786 20.4749C11.5981 20.6767 11.1752 20.9807 10.946 20.7529C10.8609 20.6685 10.8287 20.5553 10.8427 20.4463C10.8673 20.254 11.4439 19.8189 11.8003 19.5501C11.9009 19.4741 11.9839 19.4114 12.032 19.3713C12.4046 19.0597 12.7757 18.744 13.1471 18.4282C13.8342 17.8436 14.5223 17.2584 15.2223 16.6971C15.2223 14.6155 15.3637 12.3584 15.4655 10.263C15.5114 9.32166 15.5571 8.38092 15.5985 7.4423C15.6039 7.32126 15.6076 7.11955 15.612 6.8751C15.6279 6.01004 15.6536 4.6099 15.797 4.35675Z" fill="#BABABA"/>
</svg>
