<svg width="12" height="3" viewBox="0 0 12 3" fill="none" xmlns="http://www.w3.org/2000/svg">
<path fill-rule="evenodd" clip-rule="evenodd" d="M10.845 2.592C11.1685 2.53899 11.8446 2.36512 11.9788 1.77766C12.0574 1.4338 11.9102 1.11314 11.6513 0.889428C11.3339 0.615114 10.8068 0.564618 10.3669 0.528548C9.83647 0.485052 9.3035 0.494585 8.77321 0.459291C8.06632 0.411573 7.35733 0.358957 6.64406 0.306022C5.05085 0.187276 3.45681 0.069477 1.85856 0.00184367C1.17608 -0.0270791 0.629164 0.288437 0.326708 0.656862C0.0191843 1.03146 -0.110557 1.54073 0.110992 2.03684C0.377502 2.6336 1.08845 3.01552 1.81685 2.99952C3.52978 2.96166 5.25024 2.86922 6.95076 2.77785C7.82835 2.73065 8.70473 2.68331 9.5835 2.6435C10.0062 2.62428 10.4225 2.66122 10.845 2.592Z" fill="#191919"/>
</svg>
