<svg width="12" height="12" viewBox="0 0 12 12" fill="none" xmlns="http://www.w3.org/2000/svg">
<path d="M2.17083 0.350033C1.86876 0.0198003 1.42517 -0.048263 1.0606 0.0287803C0.690043 0.10709 0.320441 0.347764 0.125146 0.747007C-0.110916 1.22959 -0.000845696 1.79147 0.353006 2.11983C1.25278 2.95479 2.19198 3.75867 3.12215 4.55481L3.12572 4.55786C3.67832 5.03084 4.25243 5.48712 4.76868 6C4.25243 6.51288 3.67832 6.96916 3.12572 7.44214L3.12219 7.44516C2.19201 8.24131 1.25279 9.0452 0.353006 9.88017C-0.000845063 10.2085 -0.110916 10.7704 0.125146 11.253C0.320441 11.6522 0.690043 11.8929 1.0606 11.9712C1.42517 12.0483 1.86876 11.9802 2.17083 11.65C2.93719 10.8122 3.67428 9.93809 4.40333 9.07355L4.40642 9.06989C4.92786 8.45153 5.46296 7.85395 6 7.2513C6.53704 7.85396 7.07215 8.45154 7.59359 9.06989L7.59662 9.07348C8.32567 9.93804 9.06279 10.8122 9.82917 11.65C10.1312 11.9802 10.5748 12.0483 10.9394 11.9712C11.31 11.8929 11.6796 11.6522 11.8749 11.253C12.1109 10.7704 12.0008 10.2085 11.647 9.88017C10.7472 9.04519 9.80798 8.2413 8.8778 7.44514L8.87428 7.44214C8.32139 6.96891 7.74797 6.51326 7.23132 6C7.74795 5.48675 8.32136 5.03112 8.87423 4.5579L8.87781 4.55484C9.80794 3.75873 10.7473 2.95476 11.647 2.11983C12.0008 1.79147 12.1109 1.22959 11.8749 0.747007C11.6796 0.347764 11.31 0.10709 10.9394 0.0287803C10.5748 -0.048263 10.1312 0.0198003 9.82917 0.350033C9.06278 1.18786 8.32566 2.06198 7.59659 2.92655L7.59358 2.93011C7.07214 3.54847 6.53704 4.14604 6 4.7487C5.46296 4.14605 4.92786 3.54847 4.40642 2.93012L4.40342 2.92656C3.67435 2.06198 2.93722 1.18786 2.17083 0.350033Z" fill="#191919"/>
</svg>
