<svg width="138" height="24" viewBox="0 0 138 24" fill="none" xmlns="http://www.w3.org/2000/svg">
<path d="M2.75567 17.0941C4.30366 15.1989 13.524 12.1393 11.7222 8.64015C11.1112 7.45346 8.35125 7.28173 5.90621 7.12958C4.39302 7.03542 3.00047 6.94876 2.31248 6.63367C-0.0356469 5.48741 0.630551 2.31416 2.70283 1.26344L2.71069 1.25944C4.26674 0.459794 6.44607 0.000340676 9.35557 0.000340676C13.265 -0.000802088 20.9127 -0.120412 20.9127 5.49386C20.9127 7.09584 20.2659 8.66785 18.758 10.2433C17.8979 11.1439 16.6361 11.4707 15.4954 11.857C13.2711 12.6103 10.9655 13.3912 11.3365 15.8271C11.659 17.9451 14.2142 18.6314 16.0247 18.4702C17.9114 18.3022 20.835 18.219 20.835 20.8472C20.835 24.1484 14.622 23.9571 11.8802 23.8727C9.79275 23.8085 7.70687 23.8379 5.63516 23.5218C2.33703 23.0187 0.447436 19.8832 2.75567 17.0941Z" fill="#BABABA"/>
<path d="M38.2092 14.9459L38.2244 14.943C40.1816 14.5624 40.0111 12.7705 38.2498 12.4061L38.2458 12.4052L38.235 12.4031C37.0055 12.1571 35.7859 12.0813 34.5353 12.2062C32.806 12.3788 30.1143 12.6475 29.3344 10.9323C29.0337 10.2709 29.1156 9.12649 29.716 8.26007C30.6632 6.89333 32.8634 6.78783 35.0065 6.68505C37.6558 6.558 40.2178 6.43513 40.2178 3.9391C40.2178 2.97408 39.8139 2.11859 38.7316 1.31175L38.7241 1.30617L38.7166 1.30046C37.7385 0.553503 35.744 0.000340676 32.3144 0.000340676C29.9631 0.000340676 28.0836 0.55506 26.588 1.57919C25.0673 2.63837 23.9093 4.07423 23.1149 5.9353C22.3052 7.83225 21.8845 9.9956 21.8845 12.4515C21.8845 17.5089 23.1462 20.3017 25.0594 21.6048C27.3684 23.1584 30.176 23.9697 33.5582 23.9697C36.4576 23.9697 38.1438 23.6196 38.9415 23.1687C39.7309 22.7226 39.9068 22.2891 39.9068 21.819C39.9068 19.8656 36.5852 20.2614 35.4076 20.3774C33.1107 20.6037 30.579 20.8532 29.0337 18.2409C28.7713 17.7974 28.5482 17.0431 28.9676 16.2651C29.9312 14.4775 32.9313 15.1044 34.6113 15.1852C35.9872 15.2513 37.5975 15.0778 38.1316 14.9626L38.2092 14.9459Z" fill="#BABABA"/>
<path d="M41.3191 11.2076C41.3191 8.03749 41.8225 5.28662 42.79 2.92508C43.5113 1.19264 44.792 0.000340676 46.7349 0.000340676C49.4753 0.000340676 50.5663 3.92026 51.1081 6.10075L51.1084 6.10179L51.1087 6.10297L51.109 6.10423C51.7687 8.75976 52.638 12.2594 54.729 12.2976C56.5176 12.3303 56.4194 10.3997 56.3477 8.98971C56.2254 6.58931 56.3885 3.95283 57.3813 1.73537C57.8659 0.695229 58.6501 0.000340676 59.8338 0.000340676C61.4551 0.000340676 62.2766 1.29868 62.7194 2.7128L62.7208 2.7173C63.4619 5.06018 63.8503 7.88096 63.8503 11.2076C63.8503 13.1176 63.6086 15.1177 63.116 17.2113L63.1139 17.2201L63.1119 17.2289C62.6632 19.2367 61.9093 20.8912 60.8807 22.2329C59.9874 23.398 58.9028 23.9309 57.5017 23.9309C56.7721 23.9309 56.1463 23.6902 55.5582 23.1433C53.4121 20.9834 52.3672 17.6102 51.4906 14.7808C51.0462 13.3463 50.4136 11.3042 48.6809 11.8614C46.6531 12.5135 46.9789 15.8155 47.2421 18.4822C47.4015 20.098 47.6814 22.0916 46.4962 23.425L46.4848 23.4377L46.4738 23.4507C46.2779 23.6806 45.8931 23.9309 44.9858 23.9309C44.5472 23.9309 43.964 23.7262 43.3199 22.4841C42.6382 21.1175 42.1232 19.4127 41.8058 17.3374C41.4802 15.2088 41.3191 13.166 41.3191 11.2076Z" fill="#BABABA"/>
<path d="M79.2937 10.7989C78.5534 7.32458 80.6653 7.41543 83.4993 7.18669C85.8288 6.99865 89.0143 6.74152 89.0694 4.0557C89.1201 1.57791 86.3416 0.816023 84.3693 0.483048C82.4991 0.167298 79.995 0.000340676 76.8262 0.000340676C73.6834 0.000340676 71.2066 0.167323 69.3642 0.482455C67.3079 0.834212 64.8026 1.57823 64.8026 4.0557C64.8026 6.72676 67.6711 7.06345 69.7938 7.31257C72.5808 7.64089 75.0105 7.11607 74.2931 10.6109C73.6087 13.9458 72.7209 20.166 75.129 23.1298C75.4362 23.5078 75.9031 23.7754 76.7873 23.7754C77.7317 23.7754 78.2721 23.5076 78.6262 23.1332C81.0392 20.431 79.9383 13.8245 79.2937 10.7989Z" fill="#BABABA"/>
<path d="M96.5541 11.3035L96.5403 11.2818C94.6219 8.26709 97.753 3.33702 95.2845 0.868438L95.2759 0.859888L95.2675 0.851214C94.7725 0.341248 93.922 -0.043079 92.9703 0.0212474C89.9085 0.228217 89.9062 5.9255 89.9062 7.71736C89.9062 10.0181 89.8304 11.8049 91.5257 13.3826C93.4418 15.1656 96.1019 14.4066 97.599 16.2168C98.1916 16.9332 97.8482 18.1942 97.4987 19.4773C97.1124 20.8958 96.7186 22.3414 97.5739 23.1086C98.207 23.6503 98.9164 23.9129 99.7724 23.9129C100.539 23.9129 101.137 23.6728 101.658 23.1848C102.392 22.4942 102.021 21.0393 101.657 19.6089C101.3 18.2076 100.949 16.8298 101.648 16.2168L101.653 16.2124C103.53 14.5576 106.13 15.2874 108.126 13.3826C109.906 11.6837 110.143 9.80929 110.151 7.30924C110.155 5.56721 109.075 0.338373 106.613 0.0212474C105.659 -0.101722 104.832 0.335515 104.299 0.868438L104.291 0.876989L104.282 0.885416C101.76 3.33313 104.973 8.29869 102.951 11.3038C102.21 12.4502 101.006 12.887 99.7724 12.887C98.5269 12.887 97.3324 12.4449 96.5686 11.3247L96.5541 11.3035Z" fill="#BABABA"/>
<path d="M138 12.6846C138 14.3705 137.763 16.1354 137.277 17.9834C136.873 19.5456 135.438 23.5032 133.261 23.5032C132.442 23.5032 132.408 23.4062 131.941 23.147C130.37 22.2753 130.707 20.5714 131.389 18.5802C131.785 17.4258 132.208 16.1924 132.199 15.0168C132.185 13.3616 131.029 11.8295 130.625 11.3371C129.815 10.3524 129.397 9.9538 128.37 9.98318C127.582 10.0058 126.998 10.3042 126.557 10.8708C125.443 12.3039 125.837 14.6224 126.23 16.9277C126.658 19.4434 127.084 21.9434 125.543 23.2599C125.277 23.4461 124.961 23.5809 124.383 23.5809C123.804 23.5809 123.427 23.4461 123.161 23.2599C121.62 21.9433 122.046 19.4434 122.474 16.9277C122.867 14.6224 123.261 12.3039 122.147 10.8708C121.706 10.3042 121.121 10.0271 120.334 9.98318C119.147 9.91688 118.501 10.4893 117.668 11.3371C117.159 11.8555 116.505 13.5641 116.505 15.0168C116.505 16.17 116.92 17.3899 117.311 18.5373C117.998 20.5549 118.349 22.2941 116.749 23.1596C116.285 23.4108 116.262 23.5032 115.443 23.5032C111.67 23.5032 110.96 14.379 110.96 11.8295C110.96 10.4433 111.083 7.89431 111.848 5.7559C112.605 3.64059 114.002 1.93081 114.542 1.45216C115.627 0.48956 116.921 0.000254541 118.513 0.000254541C120.85 0.000254541 121.523 1.09785 122.272 2.99238C122.675 4.01261 123.163 5.24761 124.46 5.24761C125.793 5.24761 126.24 4.04844 126.492 2.937C127.036 1.12705 128.422 0.000254541 130.33 0.000254541C131.903 0.000254541 133.172 0.480491 134.23 1.41929L134.242 1.42999L134.255 1.44044C135.384 2.40228 136.304 3.80152 136.958 5.73939L136.96 5.74765L136.963 5.7559C137.642 7.69941 138 10.0001 138 12.6846Z" fill="#BABABA"/>
</svg>
